PathFileType	4	(X/Y/Z)	C:\Users\Basilio\Documents\Thesis Gigler\squatting_fais\c3dfiles\073\SJ_pre2\markers_experimental.trc
DataRate	CameraRate	NumFrames	NumMarkers	Units	OrigDataRate	OrigDataStartFrame	OrigNumFrames
200.000000	200.000000	4	61	mm	200.000000	1135	1514
Frame#	Time	FHD			LBHD			RBHD			C7			T10			CLAV			LSHO			LUUPA			LMUPA			LDUPA			LLEP			LMEP			LRAD			LUL			LRFIN			RSHO			RUPA1			RMUPA			RDUPA			RLEP			RMEP			RRAD			RUL			RUFIN			LASI			RASI			USACR			LSACR			RSACR			LTHI1			LTHI2			LTHI3			LTHI4			LLFC			LMFC			LTIB1			LTIB2			LTIB3			LTIB4			LLMAL			LMMAL			LHEE			LMT1			LMT2			LMT5			RTHI			RTHI2			RTHI3			RTHI4			RLFC			RMFC			RTIB1			RTIB2			RTIB3			RTIB4			RLMAL			RMMAL			RHEE			RMT1			RMT2			RMT5			
		X1	Y1	Z1	X2	Y2	Z2	X3	Y3	Z3	X4	Y4	Z4	X5	Y5	Z5	X6	Y6	Z6	X7	Y7	Z7	X8	Y8	Z8	X9	Y9	Z9	X10	Y10	Z10	X11	Y11	Z11	X12	Y12	Z12	X13	Y13	Z13	X14	Y14	Z14	X15	Y15	Z15	X16	Y16	Z16	X17	Y17	Z17	X18	Y18	Z18	X19	Y19	Z19	X20	Y20	Z20	X21	Y21	Z21	X22	Y22	Z22	X23	Y23	Z23	X24	Y24	Z24	X25	Y25	Z25	X26	Y26	Z26	X27	Y27	Z27	X28	Y28	Z28	X29	Y29	Z29	X30	Y30	Z30	X31	Y31	Z31	X32	Y32	Z32	X33	Y33	Z33	X34	Y34	Z34	X35	Y35	Z35	X36	Y36	Z36	X37	Y37	Z37	X38	Y38	Z38	X39	Y39	Z39	X40	Y40	Z40	X41	Y41	Z41	X42	Y42	Z42	X43	Y43	Z43	X44	Y44	Z44	X45	Y45	Z45	X46	Y46	Z46	X47	Y47	Z47	X48	Y48	Z48	X49	Y49	Z49	X50	Y50	Z50	X51	Y51	Z51	X52	Y52	Z52	X53	Y53	Z53	X54	Y54	Z54	X55	Y55	Z55	X56	Y56	Z56	X57	Y57	Z57	X58	Y58	Z58	X59	Y59	Z59	X60	Y60	Z60	X61	Y61	Z61	

1136	5.675	-276.1643676757813	1670.637573242188	-955.7058715820315	-413.0144653320314	1639.051025390625	-966.1361083984377	-422.3865661621095	1619.32421875	-832.2503051757815	-463.6174621582032	1526.45703125	-894.7283325195315	-532.4842529296876	1187.059448242188	-894.5425415039065	-344.1546020507813	1433.78857421875	-906.4346313476565	-387.3294677734376	1465.4736328125	-1075.298706054688	-477.8427734375001	1379.7861328125	-1185.536499023438	-459.055877685547	1332.579711914063	-1191.486206054688	-510.9378662109376	1331.927978515625	-1225.104248046875	-548.8955688476564	1246.74755859375	-1273.08447265625	-616.2945556640626	1230.951416015625	-1225.194458007813	-462.6282043457032	1036.943115234375	-1132.5009765625	-433.8099365234376	1018.027526855469	-1198.408569335938	-416.9505615234376	1024.265258789063	-1091.489501953125	-344.1604614257813	1455.639404296875	-734.0115356445314	-427.0354614257814	1370.424072265625	-589.9109497070314	-411.9635009765626	1323.41015625	-586.2188110351564	-459.0645446777345	1324.3984375	-548.5710449218751	-481.6323852539064	1244.86083984375	-505.5848083496095	-558.0958862304689	1233.374877929688	-557.8300170898439	-458.2524719238282	1026.856689453125	-660.1847534179689	-407.9898071289064	1007.71435546875	-606.0059814453126	-398.6475219726564	1021.586669921875	-708.1060180664064	-372.7954406738282	1032.306030273438	-1039.019165039063	-353.2202453613282	1014.931091308594	-785.1064453125002	-545.1503295898439	1075.155883789063	-889.7755126953127	-558.6772460937501	1047.285278320313	-917.4370117187502	-556.6309204101564	1043.2421875	-861.8438110351565	-426.1052551269532	716.4422607421876	-1122.93701171875	-390.3265075683595	639.5950317382814	-1118.64306640625	-346.0160217285157	641.2581787109376	-1095.7646484375	-417.9119873046876	587.8131713867189	-1113.518798828125	-416.7247009277345	530.0236206054689	-1124.075439453125	-404.050506591797	504.0901794433595	-988.9609375000002	-370.8726806640626	324.9590148925782	-1105.67724609375	-435.3321838378907	295.0336608886719	-1156.91748046875	-393.613739013672	283.3771667480469	-1141.104248046875	-395.1412658691407	201.4416198730469	-1118.704223632813	-466.3939819335939	88.5408172607422	-1155.409057617188	-448.0579833984376	104.4477005004883	-1068.383422851563	-520.7070312500001	49.00119400024415	-1114.51904296875	-292.4495239257813	57.34282684326173	-1094.858154296875	-294.5134582519532	60.7540855407715	-1133.585693359375	-333.1274414062501	39.72581100463868	-1186.10546875	-438.0834045410157	796.474792480469	-688.7896118164064	-403.7247314453126	739.4272460937501	-685.7984008789064	-371.7124938964844	739.0498657226564	-694.0908813476564	-436.941375732422	661.6267700195314	-693.6881713867189	-420.7079162597657	512.1373901367189	-690.8386840820314	-424.9856567382814	482.4663696289064	-817.3132324218752	-385.5278320312501	337.8845520019532	-755.8656005859376	-405.6971435546876	266.0056457519532	-678.1174316406251	-382.7799377441407	258.2627563476563	-720.6190185546876	-403.164031982422	209.9382781982422	-744.8195190429689	-451.5684814453126	84.47576141357423	-671.3302001953126	-441.9275512695314	100.1021041870117	-762.3222656250001	-517.9512329101564	41.43039321899415	-724.4331054687501	-289.6541442871094	58.76659011840822	-721.2514648437501	-291.7885742187501	58.83380126953126	-679.9482421875001	-334.2280578613282	34.16851425170899	-633.7740478515626	
1137	5.68	-276.7795715332032	1670.233764648438	-957.9697875976565	-413.2693786621095	1639.10498046875	-968.2028808593752	-422.5969238281251	1619.447021484375	-834.121276855469	-464.0939331054689	1526.434448242188	-896.8462524414065	-532.6555786132814	1186.910400390625	-896.4053955078127	-344.7106323242188	1433.707397460938	-908.4003906250002	-387.7278442382814	1465.240234375	-1077.366333007813	-478.0365295410157	1379.236206054688	-1187.312866210938	-459.2854919433595	1332.14501953125	-1193.379150390625	-511.253631591797	1331.366088867188	-1226.827758789063	-549.2242431640626	1246.060180664063	-1274.943481445313	-616.5071411132814	1230.068725585938	-1227.030639648438	-462.3543701171876	1036.46826171875	-1134.106689453125	-433.6995849609376	1017.561645507813	-1199.947875976563	-417.233367919922	1023.864196777344	-1093.02587890625	-344.8828430175782	1455.673583984375	-736.1786499023439	-427.6790771484376	1370.448486328125	-591.9512329101564	-412.4635009765626	1323.413208007813	-588.0575561523439	-459.6397399902345	1324.421752929688	-550.5534057617189	-482.0856018066407	1244.939453125	-507.3147277832032	-558.5548706054689	1233.21875	-559.7178344726564	-458.0862731933595	1026.737182617188	-661.8439331054689	-408.1185913085939	1007.699279785156	-607.3944702148439	-398.864227294922	1021.464965820313	-709.7050170898439	-372.7678833007813	1031.841430664063	-1040.432495117188	-353.4029235839844	1014.778747558594	-786.7122802734377	-545.3513183593751	1075.02099609375	-891.5828247070315	-558.8344116210939	1047.239135742188	-919.026306152344	-556.9187011718751	1043.076171875	-863.583190917969	-426.6510314941407	716.3784179687501	-1124.141357421875	-390.8862304687501	639.4908447265626	-1120.070556640625	-346.5530700683594	641.0804443359376	-1096.978515625	-418.3645629882814	587.7451171875001	-1114.426391601563	-417.0198974609376	530.0401611328126	-1124.975708007813	-404.7752685546876	504.011199951172	-989.904235839844	-371.0939941406251	324.9182739257813	-1106.3056640625	-435.6968078613282	294.8450927734376	-1157.3603515625	-393.8892517089845	283.1962585449219	-1141.64599609375	-395.2671813964845	201.3630371093751	-1119.132446289063	-466.4339599609376	88.33435821533205	-1155.615600585938	-448.112274169922	104.368637084961	-1068.593017578125	-520.7295532226564	48.88496780395509	-1114.644409179688	-292.4771118164063	57.34532928466798	-1094.983276367188	-294.5241394042969	60.71026992797853	-1133.728759765625	-333.1136169433594	39.57844543457032	-1186.276611328125	-437.9357910156251	796.4632568359377	-689.9357910156251	-403.7644958496095	739.4149780273439	-687.0875854492189	-371.7273864746094	738.9875488281251	-695.2471923828126	-436.8818359375001	661.6055908203126	-694.7044677734376	-420.6134033203126	512.1788940429689	-691.6748657226564	-425.1391601562501	482.3526306152345	-818.2207641601565	-384.9384155273439	337.5659179687501	-756.5263061523439	-405.6754760742189	266.0985717773438	-678.6265258789064	-382.9461669921876	258.2485046386719	-721.1661987304689	-403.2463378906251	209.9252929687501	-745.1753540039064	-451.5488586425782	84.53411865234376	-671.4670410156251	-441.9536132812501	100.0916137695313	-762.4478759765626	-517.9512939453126	41.43569564819337	-724.4493408203126	-289.6577758789063	58.79639816284181	-721.3510131835939	-291.8007202148438	58.87862777709962	-680.0384521484376	-334.2474670410157	34.2057228088379	-633.8613281250001	
1138	5.685	-274.1042480468751	1670.488891601563	-960.463073730469	-413.7363891601564	1639.139282226563	-970.3685302734377	-422.8421936035157	1619.6123046875	-836.2354736328127	-464.4545898437501	1526.462646484375	-898.9072265625002	-532.8264160156251	1186.8046875	-898.1912231445315	-345.1544494628907	1433.657592773438	-910.3730468750002	-388.1988525390626	1465.02685546875	-1079.313842773438	-478.4094543457032	1378.721801757813	-1189.343627929688	-459.8150024414064	1331.578979492188	-1195.40771484375	-511.6334533691407	1330.734985351563	-1228.818115234375	-549.4012451171876	1245.384399414063	-1276.76904296875	-616.5872802734376	1229.374145507813	-1228.622680664063	-462.2182006835939	1036.02734375	-1135.731811523438	-433.544158935547	1017.014282226563	-1201.570556640625	-416.9110717773439	1023.518920898438	-1094.728515625	-345.3021240234376	1455.754150390625	-737.9907226562501	-428.1664428710939	1370.541259765625	-593.8825073242189	-413.042449951172	1323.484985351563	-589.9805908203126	-460.1681213378907	1324.468627929688	-552.5310668945314	-482.6720581054689	1245.073608398438	-508.9468078613282	-558.9695434570314	1233.126220703125	-561.6155395507814	-458.2095642089845	1026.669921875	-663.4702758789064	-408.4373779296876	1007.690063476563	-609.1055908203126	-398.9714965820314	1021.399719238281	-711.2438964843751	-372.8791503906251	1031.358764648438	-1042.227905273438	-353.4913635253907	1014.655212402344	-788.1286621093752	-545.5818481445314	1074.854736328125	-893.1501464843752	-558.8321533203126	1047.058959960938	-920.8215332031252	-557.0120849609376	1043.005004882813	-865.236755371094	-427.1357421875001	716.2291870117189	-1125.277709960938	-391.3377990722657	639.5042114257814	-1121.00390625	-347.0565185546876	641.1323242187501	-1098.15966796875	-418.734100341797	587.6968994140626	-1115.35791015625	-417.2019653320314	529.9732055664064	-1125.824340820313	-405.1020507812501	504.0809631347657	-990.7897949218752	-371.2916870117188	324.9196472167969	-1106.68017578125	-435.9475097656251	294.6847229003907	-1157.903442382813	-394.065643310547	283.0583190917969	-1142.22607421875	-395.3938293457032	201.2834167480469	-1119.55078125	-466.4289550781251	88.17850494384767	-1155.775634765625	-448.1135253906251	104.3198165893555	-1068.74755859375	-520.7633666992189	48.82417297363283	-1114.7470703125	-292.5769348144532	57.36017227172853	-1095.160278320313	-294.5521850585938	60.59304046630861	-1133.890258789063	-333.1661987304688	39.44931030273438	-1186.449462890625	-437.9082946777345	796.475524902344	-691.2281494140626	-403.7369689941407	739.3748168945314	-688.3360595703126	-371.6838073730469	738.9258422851564	-696.5269775390626	-436.8536376953126	661.5310668945314	-695.6525878906251	-420.6393127441407	512.2234497070314	-692.7458496093751	-425.3326110839845	482.2442626953126	-819.2017211914065	-385.7830200195314	337.8529968261719	-757.3400878906251	-405.5697326660157	266.2445983886719	-679.1624755859376	-383.1052551269532	258.2361145019532	-721.7728271484376	-403.3140869140626	209.9057159423829	-745.5712280273439	-451.5819091796876	84.60604858398439	-671.5860595703126	-441.9456481933595	100.0688629150391	-762.6246337890626	-517.8897094726564	41.44525909423829	-724.4904174804689	-289.6622619628907	58.81941604614259	-721.4490356445314	-291.8132019042969	58.96639633178712	-680.0902709960939	-334.2300109863282	34.28392410278321	-633.9707641601564	
1139	5.69	-277.9971313476563	1669.760620117188	-962.3214111328127	-413.8697814941407	1639.176391601563	-972.4398193359377	-423.2603759765626	1619.958129882813	-838.4309082031252	-464.915252685547	1526.458618164063	-900.9741210937502	-533.1300048828126	1186.804565429688	-900.0395507812502	-345.4929199218751	1433.686767578125	-912.1463623046877	-388.6741943359376	1464.7392578125	-1081.423950195313	-478.7030029296876	1378.3251953125	-1191.36474609375	-459.913787841797	1331.08056640625	-1196.999267578125	-511.8576965332032	1330.196655273438	-1230.603271484375	-549.6049804687501	1244.7763671875	-1278.39453125	-616.7744750976564	1228.594116210938	-1230.347290039063	-462.4566955566407	1035.6064453125	-1137.505859375	-433.5408020019532	1016.589416503906	-1203.21337890625	-417.1021118164064	1023.204345703125	-1096.349487304688	-345.8762512207032	1455.794921875	-739.8771362304689	-428.8661193847657	1370.520141601563	-595.8897094726564	-413.5505676269532	1323.561645507813	-591.9301757812501	-460.7917785644532	1324.52685546875	-554.4752807617189	-483.0518493652345	1245.191528320313	-511.0343017578126	-559.4193115234376	1233.010986328125	-563.5977172851564	-458.7546691894532	1026.552001953125	-665.0008544921876	-408.5799865722657	1007.657470703125	-610.4901733398439	-399.1212158203126	1021.304504394531	-712.8038330078126	-372.7160339355469	1031.082275390625	-1043.565307617188	-353.6409606933594	1014.576904296875	-789.7728271484377	-545.5812988281251	1074.714965820313	-894.7920532226565	-559.0715332031251	1046.979614257813	-922.5126953125002	-557.2044067382814	1042.931640625	-866.967224121094	-427.6121826171876	716.3563232421876	-1126.685424804688	-391.6532287597657	639.5191650390626	-1122.402587890625	-347.3676757812501	641.2431030273439	-1099.38427734375	-419.1349182128907	587.7986450195314	-1116.507568359375	-417.5668334960939	530.0307617187501	-1126.868408203125	-405.4289855957032	504.1357421875001	-991.7827758789065	-371.5010070800782	324.9379882812501	-1107.327392578125	-436.0588989257814	294.5404052734376	-1158.480102539063	-394.3847656250001	282.9966430664063	-1142.75146484375	-395.4635314941407	201.2444305419922	-1120.019897460938	-466.4515686035157	88.02060699462892	-1156.036010742188	-448.1115112304689	104.3290786743164	-1068.978271484375	-520.7546386718751	48.7443199157715	-1114.869140625	-292.5690917968751	57.37717437744142	-1095.297485351563	-294.5048217773438	60.52583694458009	-1134.041748046875	-333.1217041015626	39.33397293090821	-1186.609008789063	-438.0602111816407	796.4239501953127	-692.3770751953126	-403.5986938476564	739.3988037109376	-689.4843750000001	-371.7181091308594	738.8855590820314	-697.7634887695314	-436.924041748047	661.4805908203126	-696.7260742187501	-420.6072998046876	512.2261962890626	-693.8114013671876	-425.5384216308595	482.1175231933595	-820.141296386719	-385.7932128906251	337.8190307617188	-758.0134887695314	-405.4963378906251	266.4104309082032	-679.6900634765626	-383.1229248046876	258.2850646972657	-722.2940063476564	-403.3556213378907	209.9104309082032	-745.9902343750001	-451.5662231445314	84.66844177246095	-671.7108154296876	-441.8974914550782	100.0281829833985	-762.8269042968751	-517.9060668945314	41.45832443237305	-724.5679931640626	-289.6617126464844	58.84744262695314	-721.5331420898439	-291.8245849609376	59.01619720458986	-680.2521362304689	-334.2208557128907	34.35259628295899	-634.0723876953126	
